<svg xmlns="http://www.w3.org/2000/svg" xmlns:xlink="http://www.w3.org/1999/xlink" contentStyleType="text/css" height="1271px" preserveAspectRatio="none" style="width:1556px;height:1271px;background:#FFFFFF;" version="1.1" viewBox="0 0 1556 1271" width="1556px" zoomAndPan="magnify"><title>Full Sequence Diagram - US07</title><defs/><g><text fill="#000000" font-family="sans-serif" font-size="14" font-weight="bold" lengthAdjust="spacing" textLength="202.2822" x="675.876" y="30.1074">Full Sequence Diagram - US07</text><rect fill="#FFFFFF" height="1037.6035" style="stroke:#181818;stroke-width:1.0;" width="10" x="67.9653" y="133.2422"/><rect fill="#FFFFFF" height="388.4922" style="stroke:#181818;stroke-width:1.0;" width="10" x="462.312" y="156.5332"/><rect fill="#FFFFFF" height="281.6191" style="stroke:#181818;stroke-width:1.0;" width="10" x="462.312" y="576.3164"/><rect fill="#FFFFFF" height="281.6191" style="stroke:#181818;stroke-width:1.0;" width="10" x="462.312" y="889.2266"/><rect fill="#FFFFFF" height="992.0215" style="stroke:#181818;stroke-width:1.0;" width="10" x="744.5698" y="187.8242"/><rect fill="#FFFFFF" height="572.2383" style="stroke:#181818;stroke-width:1.0;" width="10" x="749.5698" y="607.6074"/><rect fill="#FFFFFF" height="259.3281" style="stroke:#181818;stroke-width:1.0;" width="10" x="754.5698" y="920.5176"/><rect fill="#FFFFFF" height="31.291" style="stroke:#181818;stroke-width:1.0;" width="10" x="979.0386" y="219.1152"/><rect fill="#FFFFFF" height="31.291" style="stroke:#181818;stroke-width:1.0;" width="10" x="979.0386" y="451.1523"/><rect fill="#FFFFFF" height="31.291" style="stroke:#181818;stroke-width:1.0;" width="10" x="979.0386" y="638.8984"/><rect fill="#FFFFFF" height="31.291" style="stroke:#181818;stroke-width:1.0;" width="10" x="979.0386" y="764.0625"/><rect fill="#FFFFFF" height="31.291" style="stroke:#181818;stroke-width:1.0;" width="10" x="979.0386" y="951.8086"/><rect fill="#FFFFFF" height="31.291" style="stroke:#181818;stroke-width:1.0;" width="10" x="979.0386" y="1076.9727"/><rect fill="#FFFFFF" height="138.1641" style="stroke:#181818;stroke-width:1.0;" width="10" x="1245.1255" y="281.6973"/><rect fill="#FFFFFF" height="31.291" style="stroke:#181818;stroke-width:1.0;" width="10" x="1245.1255" y="701.4805"/><rect fill="#FFFFFF" height="31.291" style="stroke:#181818;stroke-width:1.0;" width="10" x="1245.1255" y="1014.3906"/><rect fill="#FFFFFF" height="31.291" style="stroke:#181818;stroke-width:1.0;" width="10" x="1450.8623" y="357.2793"/><line style="stroke:#181818;stroke-width:0.5;stroke-dasharray:5.0,5.0;" x1="72" x2="72" y1="123.2422" y2="1188.8457"/><line style="stroke:#181818;stroke-width:0.5;stroke-dasharray:5.0,5.0;" x1="466.9849" x2="466.9849" y1="123.2422" y2="1188.8457"/><line style="stroke:#181818;stroke-width:0.5;stroke-dasharray:5.0,5.0;" x1="748.7461" x2="748.7461" y1="123.2422" y2="1188.8457"/><line style="stroke:#181818;stroke-width:0.5;stroke-dasharray:5.0,5.0;" x1="983.0977" x2="983.0977" y1="123.2422" y2="1188.8457"/><line style="stroke:#181818;stroke-width:0.5;stroke-dasharray:5.0,5.0;" x1="1249.5605" x2="1249.5605" y1="123.2422" y2="1188.8457"/><line style="stroke:#181818;stroke-width:0.5;stroke-dasharray:5.0,5.0;" x1="1455.6904" x2="1455.6904" y1="123.2422" y2="1188.8457"/><text fill="#000000" font-family="sans-serif" font-size="14" lengthAdjust="spacing" textLength="129.9307" x="5" y="119.7285">Port Authority Officer</text><ellipse cx="72.9653" cy="53.1211" fill="#E3E3E3" rx="8" ry="8" style="stroke:#181818;stroke-width:0.5;"/><path d="M72.9653,61.1211 L72.9653,88.1211 M59.9653,69.1211 L85.9653,69.1211 M72.9653,88.1211 L59.9653,103.1211 M72.9653,88.1211 L85.9653,103.1211 " fill="none" style="stroke:#181818;stroke-width:0.5;"/><text fill="#000000" font-family="sans-serif" font-size="14" lengthAdjust="spacing" textLength="129.9307" x="5" y="1202.9531">Port Authority Officer</text><ellipse cx="72.9653" cy="1214.9668" fill="#E3E3E3" rx="8" ry="8" style="stroke:#181818;stroke-width:0.5;"/><path d="M72.9653,1222.9668 L72.9653,1249.9668 M59.9653,1230.9668 L85.9653,1230.9668 M72.9653,1249.9668 L59.9653,1264.9668 M72.9653,1249.9668 L85.9653,1264.9668 " fill="none" style="stroke:#181818;stroke-width:0.5;"/><rect fill="#E3E3E3" height="32.6211" rx="2.5" ry="2.5" style="stroke:#181818;stroke-width:0.5;" width="176.6543" x="378.9849" y="89.6211"/><text fill="#000000" font-family="sans-serif" font-size="14" lengthAdjust="spacing" textLength="162.6543" x="385.9849" y="111.7285">:ShippingAgentsController</text><rect fill="#E3E3E3" height="32.6211" rx="2.5" ry="2.5" style="stroke:#181818;stroke-width:0.5;" width="176.6543" x="378.9849" y="1187.8457"/><text fill="#000000" font-family="sans-serif" font-size="14" lengthAdjust="spacing" textLength="162.6543" x="385.9849" y="1209.9531">:ShippingAgentsController</text><rect fill="#E3E3E3" height="32.6211" rx="2.5" ry="2.5" style="stroke:#181818;stroke-width:0.5;" width="155.6475" x="671.7461" y="89.6211"/><text fill="#000000" font-family="sans-serif" font-size="14" lengthAdjust="spacing" textLength="141.6475" x="678.7461" y="111.7285">:ShippingAgentService</text><rect fill="#E3E3E3" height="32.6211" rx="2.5" ry="2.5" style="stroke:#181818;stroke-width:0.5;" width="155.6475" x="671.7461" y="1187.8457"/><text fill="#000000" font-family="sans-serif" font-size="14" lengthAdjust="spacing" textLength="141.6475" x="678.7461" y="1209.9531">:ShippingAgentService</text><rect fill="#E3E3E3" height="32.6211" rx="2.5" ry="2.5" style="stroke:#181818;stroke-width:0.5;" width="175.8818" x="896.0977" y="89.6211"/><text fill="#000000" font-family="sans-serif" font-size="14" lengthAdjust="spacing" textLength="161.8818" x="903.0977" y="111.7285">:ShippingAgentRepository</text><rect fill="#E3E3E3" height="32.6211" rx="2.5" ry="2.5" style="stroke:#181818;stroke-width:0.5;" width="175.8818" x="896.0977" y="1187.8457"/><text fill="#000000" font-family="sans-serif" font-size="14" lengthAdjust="spacing" textLength="161.8818" x="903.0977" y="1209.9531">:ShippingAgentRepository</text><rect fill="#E3E3E3" height="32.6211" rx="2.5" ry="2.5" style="stroke:#181818;stroke-width:0.5;" width="203.1299" x="1148.5605" y="89.6211"/><text fill="#000000" font-family="sans-serif" font-size="14" lengthAdjust="spacing" textLength="189.1299" x="1155.5605" y="111.7285">:ShippingAgentRepresentative</text><rect fill="#E3E3E3" height="32.6211" rx="2.5" ry="2.5" style="stroke:#181818;stroke-width:0.5;" width="203.1299" x="1148.5605" y="1187.8457"/><text fill="#000000" font-family="sans-serif" font-size="14" lengthAdjust="spacing" textLength="189.1299" x="1155.5605" y="1209.9531">:ShippingAgentRepresentative</text><rect fill="#E3E3E3" height="32.6211" rx="2.5" ry="2.5" style="stroke:#181818;stroke-width:0.5;" width="188.3438" x="1361.6904" y="89.6211"/><text fill="#000000" font-family="sans-serif" font-size="14" lengthAdjust="spacing" textLength="174.3438" x="1368.6904" y="111.7285">:ShippingAgentOrganization</text><rect fill="#E3E3E3" height="32.6211" rx="2.5" ry="2.5" style="stroke:#181818;stroke-width:0.5;" width="188.3438" x="1361.6904" y="1187.8457"/><text fill="#000000" font-family="sans-serif" font-size="14" lengthAdjust="spacing" textLength="174.3438" x="1368.6904" y="1209.9531">:ShippingAgentOrganization</text><rect fill="#FFFFFF" height="1037.6035" style="stroke:#181818;stroke-width:1.0;" width="10" x="67.9653" y="133.2422"/><rect fill="#FFFFFF" height="388.4922" style="stroke:#181818;stroke-width:1.0;" width="10" x="462.312" y="156.5332"/><rect fill="#FFFFFF" height="281.6191" style="stroke:#181818;stroke-width:1.0;" width="10" x="462.312" y="576.3164"/><rect fill="#FFFFFF" height="281.6191" style="stroke:#181818;stroke-width:1.0;" width="10" x="462.312" y="889.2266"/><rect fill="#FFFFFF" height="992.0215" style="stroke:#181818;stroke-width:1.0;" width="10" x="744.5698" y="187.8242"/><rect fill="#FFFFFF" height="572.2383" style="stroke:#181818;stroke-width:1.0;" width="10" x="749.5698" y="607.6074"/><rect fill="#FFFFFF" height="259.3281" style="stroke:#181818;stroke-width:1.0;" width="10" x="754.5698" y="920.5176"/><rect fill="#FFFFFF" height="31.291" style="stroke:#181818;stroke-width:1.0;" width="10" x="979.0386" y="219.1152"/><rect fill="#FFFFFF" height="31.291" style="stroke:#181818;stroke-width:1.0;" width="10" x="979.0386" y="451.1523"/><rect fill="#FFFFFF" height="31.291" style="stroke:#181818;stroke-width:1.0;" width="10" x="979.0386" y="638.8984"/><rect fill="#FFFFFF" height="31.291" style="stroke:#181818;stroke-width:1.0;" width="10" x="979.0386" y="764.0625"/><rect fill="#FFFFFF" height="31.291" style="stroke:#181818;stroke-width:1.0;" width="10" x="979.0386" y="951.8086"/><rect fill="#FFFFFF" height="31.291" style="stroke:#181818;stroke-width:1.0;" width="10" x="979.0386" y="1076.9727"/><rect fill="#FFFFFF" height="138.1641" style="stroke:#181818;stroke-width:1.0;" width="10" x="1245.1255" y="281.6973"/><rect fill="#FFFFFF" height="31.291" style="stroke:#181818;stroke-width:1.0;" width="10" x="1245.1255" y="701.4805"/><rect fill="#FFFFFF" height="31.291" style="stroke:#181818;stroke-width:1.0;" width="10" x="1245.1255" y="1014.3906"/><rect fill="#FFFFFF" height="31.291" style="stroke:#181818;stroke-width:1.0;" width="10" x="1450.8623" y="357.2793"/><polygon fill="#181818" points="450.312,152.5332,460.312,156.5332,450.312,160.5332,454.312,156.5332" style="stroke:#181818;stroke-width:1.0;"/><line style="stroke:#181818;stroke-width:1.0;" x1="77.9653" x2="456.312" y1="156.5332" y2="156.5332"/><text fill="#000000" font-family="sans-serif" font-size="13" font-weight="bold" lengthAdjust="spacing" textLength="7.23" x="84.9653" y="151.2705">1</text><text fill="#000000" font-family="sans-serif" font-size="13" lengthAdjust="spacing" textLength="289.7832" x="96.1953" y="151.2705">POST /api/shipping-agents/{orgId}/representatives</text><polygon fill="#181818" points="732.5698,183.8242,742.5698,187.8242,732.5698,191.8242,736.5698,187.8242" style="stroke:#181818;stroke-width:1.0;"/><line style="stroke:#181818;stroke-width:1.0;" x1="472.312" x2="738.5698" y1="187.8242" y2="187.8242"/><text fill="#000000" font-family="sans-serif" font-size="13" font-weight="bold" lengthAdjust="spacing" textLength="7.23" x="479.312" y="182.5615">2</text><text fill="#000000" font-family="sans-serif" font-size="13" lengthAdjust="spacing" textLength="190.0425" x="490.542" y="182.5615">CreateRepresentative(orgId, dto)</text><polygon fill="#181818" points="967.0386,215.1152,977.0386,219.1152,967.0386,223.1152,971.0386,219.1152" style="stroke:#181818;stroke-width:1.0;"/><line style="stroke:#181818;stroke-width:1.0;" x1="754.5698" x2="973.0386" y1="219.1152" y2="219.1152"/><text fill="#000000" font-family="sans-serif" font-size="13" font-weight="bold" lengthAdjust="spacing" textLength="7.23" x="761.5698" y="213.8525">3</text><text fill="#000000" font-family="sans-serif" font-size="13" lengthAdjust="spacing" textLength="124.9917" x="772.7998" y="213.8525">FindByIdAsync(orgId)</text><polygon fill="#181818" points="765.5698,246.4063,755.5698,250.4063,765.5698,254.4063,761.5698,250.4063" style="stroke:#181818;stroke-width:1.0;"/><line style="stroke:#181818;stroke-width:1.0;stroke-dasharray:2.0,2.0;" x1="759.5698" x2="983.0386" y1="250.4063" y2="250.4063"/><text fill="#000000" font-family="sans-serif" font-size="13" font-weight="bold" lengthAdjust="spacing" textLength="7.23" x="771.5698" y="245.1436">4</text><text fill="#000000" font-family="sans-serif" font-size="13" lengthAdjust="spacing" textLength="158.2788" x="782.7998" y="245.1436">ShippingAgentOrganization</text><polygon fill="#181818" points="1233.1255,277.6973,1243.1255,281.6973,1233.1255,285.6973,1237.1255,281.6973" style="stroke:#181818;stroke-width:1.0;"/><line style="stroke:#181818;stroke-width:1.0;" x1="754.5698" x2="1239.1255" y1="281.6973" y2="281.6973"/><text fill="#000000" font-family="sans-serif" font-size="13" font-weight="bold" lengthAdjust="spacing" textLength="7.23" x="761.5698" y="276.4346">5</text><text fill="#000000" font-family="sans-serif" font-size="13" lengthAdjust="spacing" textLength="460.3257" x="772.7998" y="276.4346">new ShippingAgentRepresentative(id, name, citizenId, nationality, email, phone)</text><line style="stroke:#181818;stroke-width:1.0;" x1="1255.1255" x2="1297.1255" y1="312.9883" y2="312.9883"/><line style="stroke:#181818;stroke-width:1.0;" x1="1297.1255" x2="1297.1255" y1="312.9883" y2="325.9883"/><line style="stroke:#181818;stroke-width:1.0;" x1="1256.1255" x2="1297.1255" y1="325.9883" y2="325.9883"/><polygon fill="#181818" points="1266.1255,321.9883,1256.1255,325.9883,1266.1255,329.9883,1262.1255,325.9883" style="stroke:#181818;stroke-width:1.0;"/><text fill="#000000" font-family="sans-serif" font-size="13" font-weight="bold" lengthAdjust="spacing" textLength="7.23" x="1262.1255" y="307.7256">6</text><text fill="#000000" font-family="sans-serif" font-size="13" lengthAdjust="spacing" textLength="101.8862" x="1273.3555" y="307.7256">ValidateInputs(...)</text><polygon fill="#181818" points="1438.8623,353.2793,1448.8623,357.2793,1438.8623,361.2793,1442.8623,357.2793" style="stroke:#181818;stroke-width:1.0;"/><line style="stroke:#181818;stroke-width:1.0;" x1="1255.1255" x2="1444.8623" y1="357.2793" y2="357.2793"/><text fill="#000000" font-family="sans-serif" font-size="13" font-weight="bold" lengthAdjust="spacing" textLength="7.23" x="1262.1255" y="352.0166">7</text><text fill="#000000" font-family="sans-serif" font-size="13" lengthAdjust="spacing" textLength="138.0171" x="1273.3555" y="352.0166">AddRepresentative(rep)</text><polygon fill="#181818" points="1266.1255,384.5703,1256.1255,388.5703,1266.1255,392.5703,1262.1255,388.5703" style="stroke:#181818;stroke-width:1.0;"/><line style="stroke:#181818;stroke-width:1.0;stroke-dasharray:2.0,2.0;" x1="1260.1255" x2="1454.8623" y1="388.5703" y2="388.5703"/><text fill="#000000" font-family="sans-serif" font-size="13" font-weight="bold" lengthAdjust="spacing" textLength="7.23" x="1272.1255" y="383.3076">8</text><text fill="#000000" font-family="sans-serif" font-size="13" lengthAdjust="spacing" textLength="49.1309" x="1283.3555" y="383.3076">Success</text><polygon fill="#181818" points="765.5698,415.8613,755.5698,419.8613,765.5698,423.8613,761.5698,419.8613" style="stroke:#181818;stroke-width:1.0;"/><line style="stroke:#181818;stroke-width:1.0;stroke-dasharray:2.0,2.0;" x1="759.5698" x2="1249.1255" y1="419.8613" y2="419.8613"/><text fill="#000000" font-family="sans-serif" font-size="13" font-weight="bold" lengthAdjust="spacing" textLength="7.23" x="771.5698" y="414.5986">9</text><text fill="#000000" font-family="sans-serif" font-size="13" lengthAdjust="spacing" textLength="172.0088" x="782.7998" y="414.5986">ShippingAgentRepresentative</text><polygon fill="#181818" points="967.0386,447.1523,977.0386,451.1523,967.0386,455.1523,971.0386,451.1523" style="stroke:#181818;stroke-width:1.0;"/><line style="stroke:#181818;stroke-width:1.0;" x1="754.5698" x2="973.0386" y1="451.1523" y2="451.1523"/><text fill="#000000" font-family="sans-serif" font-size="13" font-weight="bold" lengthAdjust="spacing" textLength="14.46" x="761.5698" y="445.8896">10</text><text fill="#000000" font-family="sans-serif" font-size="13" lengthAdjust="spacing" textLength="92.479" x="780.0298" y="445.8896">SaveAsync(rep)</text><polygon fill="#181818" points="765.5698,478.4434,755.5698,482.4434,765.5698,486.4434,761.5698,482.4434" style="stroke:#181818;stroke-width:1.0;"/><line style="stroke:#181818;stroke-width:1.0;stroke-dasharray:2.0,2.0;" x1="759.5698" x2="983.0386" y1="482.4434" y2="482.4434"/><text fill="#000000" font-family="sans-serif" font-size="13" font-weight="bold" lengthAdjust="spacing" textLength="14.46" x="771.5698" y="477.1807">11</text><text fill="#000000" font-family="sans-serif" font-size="13" lengthAdjust="spacing" textLength="172.0088" x="790.0298" y="477.1807">ShippingAgentRepresentative</text><polygon fill="#181818" points="483.312,509.7344,473.312,513.7344,483.312,517.7344,479.312,513.7344" style="stroke:#181818;stroke-width:1.0;"/><line style="stroke:#181818;stroke-width:1.0;stroke-dasharray:2.0,2.0;" x1="477.312" x2="743.5698" y1="513.7344" y2="513.7344"/><text fill="#000000" font-family="sans-serif" font-size="13" font-weight="bold" lengthAdjust="spacing" textLength="14.46" x="489.312" y="508.4717">12</text><text fill="#000000" font-family="sans-serif" font-size="13" lengthAdjust="spacing" textLength="192.2388" x="507.772" y="508.4717">ShippingAgentRepresentativeDto</text><polygon fill="#181818" points="88.9653,541.0254,78.9653,545.0254,88.9653,549.0254,84.9653,545.0254" style="stroke:#181818;stroke-width:1.0;"/><line style="stroke:#181818;stroke-width:1.0;stroke-dasharray:2.0,2.0;" x1="82.9653" x2="466.312" y1="545.0254" y2="545.0254"/><text fill="#000000" font-family="sans-serif" font-size="13" font-weight="bold" lengthAdjust="spacing" textLength="14.46" x="94.9653" y="539.7627">13</text><text fill="#000000" font-family="sans-serif" font-size="13" lengthAdjust="spacing" textLength="71.5508" x="113.4253" y="539.7627">201 Created</text><polygon fill="#181818" points="450.312,572.3164,460.312,576.3164,450.312,580.3164,454.312,576.3164" style="stroke:#181818;stroke-width:1.0;"/><line style="stroke:#181818;stroke-width:1.0;" x1="77.9653" x2="456.312" y1="576.3164" y2="576.3164"/><text fill="#000000" font-family="sans-serif" font-size="13" font-weight="bold" lengthAdjust="spacing" textLength="14.46" x="84.9653" y="571.0537">14</text><text fill="#000000" font-family="sans-serif" font-size="13" lengthAdjust="spacing" textLength="322.3149" x="103.4253" y="571.0537">PUT /api/shipping-agents/{orgId}/representatives/{repId}</text><polygon fill="#181818" points="737.5698,603.6074,747.5698,607.6074,737.5698,611.6074,741.5698,607.6074" style="stroke:#181818;stroke-width:1.0;"/><line style="stroke:#181818;stroke-width:1.0;" x1="472.312" x2="743.5698" y1="607.6074" y2="607.6074"/><text fill="#000000" font-family="sans-serif" font-size="13" font-weight="bold" lengthAdjust="spacing" textLength="14.46" x="479.312" y="602.3447">15</text><text fill="#000000" font-family="sans-serif" font-size="13" lengthAdjust="spacing" textLength="229.7979" x="497.772" y="602.3447">UpdateRepresentative(orgId, repId, dto)</text><polygon fill="#181818" points="967.0386,634.8984,977.0386,638.8984,967.0386,642.8984,971.0386,638.8984" style="stroke:#181818;stroke-width:1.0;"/><line style="stroke:#181818;stroke-width:1.0;" x1="759.5698" x2="973.0386" y1="638.8984" y2="638.8984"/><text fill="#000000" font-family="sans-serif" font-size="13" font-weight="bold" lengthAdjust="spacing" textLength="14.46" x="766.5698" y="633.6357">16</text><text fill="#000000" font-family="sans-serif" font-size="13" lengthAdjust="spacing" textLength="124.9917" x="785.0298" y="633.6357">FindByIdAsync(repId)</text><polygon fill="#181818" points="770.5698,666.1895,760.5698,670.1895,770.5698,674.1895,766.5698,670.1895" style="stroke:#181818;stroke-width:1.0;"/><line style="stroke:#181818;stroke-width:1.0;stroke-dasharray:2.0,2.0;" x1="764.5698" x2="983.0386" y1="670.1895" y2="670.1895"/><text fill="#000000" font-family="sans-serif" font-size="13" font-weight="bold" lengthAdjust="spacing" textLength="14.46" x="776.5698" y="664.9268">17</text><text fill="#000000" font-family="sans-serif" font-size="13" lengthAdjust="spacing" textLength="172.0088" x="795.0298" y="664.9268">ShippingAgentRepresentative</text><polygon fill="#181818" points="1233.1255,697.4805,1243.1255,701.4805,1233.1255,705.4805,1237.1255,701.4805" style="stroke:#181818;stroke-width:1.0;"/><line style="stroke:#181818;stroke-width:1.0;" x1="759.5698" x2="1239.1255" y1="701.4805" y2="701.4805"/><text fill="#000000" font-family="sans-serif" font-size="13" font-weight="bold" lengthAdjust="spacing" textLength="14.46" x="766.5698" y="696.2178">18</text><text fill="#000000" font-family="sans-serif" font-size="13" lengthAdjust="spacing" textLength="164.7598" x="785.0298" y="696.2178">Update(name, email, phone)</text><polygon fill="#181818" points="770.5698,728.7715,760.5698,732.7715,770.5698,736.7715,766.5698,732.7715" style="stroke:#181818;stroke-width:1.0;"/><line style="stroke:#181818;stroke-width:1.0;stroke-dasharray:2.0,2.0;" x1="764.5698" x2="1249.1255" y1="732.7715" y2="732.7715"/><text fill="#000000" font-family="sans-serif" font-size="13" font-weight="bold" lengthAdjust="spacing" textLength="14.46" x="776.5698" y="727.5088">19</text><text fill="#000000" font-family="sans-serif" font-size="13" lengthAdjust="spacing" textLength="49.1309" x="795.0298" y="727.5088">Success</text><polygon fill="#181818" points="967.0386,760.0625,977.0386,764.0625,967.0386,768.0625,971.0386,764.0625" style="stroke:#181818;stroke-width:1.0;"/><line style="stroke:#181818;stroke-width:1.0;" x1="759.5698" x2="973.0386" y1="764.0625" y2="764.0625"/><text fill="#000000" font-family="sans-serif" font-size="13" font-weight="bold" lengthAdjust="spacing" textLength="14.46" x="766.5698" y="758.7998">20</text><text fill="#000000" font-family="sans-serif" font-size="13" lengthAdjust="spacing" textLength="92.479" x="785.0298" y="758.7998">SaveAsync(rep)</text><polygon fill="#181818" points="770.5698,791.3535,760.5698,795.3535,770.5698,799.3535,766.5698,795.3535" style="stroke:#181818;stroke-width:1.0;"/><line style="stroke:#181818;stroke-width:1.0;stroke-dasharray:2.0,2.0;" x1="764.5698" x2="983.0386" y1="795.3535" y2="795.3535"/><text fill="#000000" font-family="sans-serif" font-size="13" font-weight="bold" lengthAdjust="spacing" textLength="14.46" x="776.5698" y="790.0908">21</text><text fill="#000000" font-family="sans-serif" font-size="13" lengthAdjust="spacing" textLength="172.0088" x="795.0298" y="790.0908">ShippingAgentRepresentative</text><polygon fill="#181818" points="483.312,822.6445,473.312,826.6445,483.312,830.6445,479.312,826.6445" style="stroke:#181818;stroke-width:1.0;"/><line style="stroke:#181818;stroke-width:1.0;stroke-dasharray:2.0,2.0;" x1="477.312" x2="748.5698" y1="826.6445" y2="826.6445"/><text fill="#000000" font-family="sans-serif" font-size="13" font-weight="bold" lengthAdjust="spacing" textLength="14.46" x="489.312" y="821.3818">22</text><text fill="#000000" font-family="sans-serif" font-size="13" lengthAdjust="spacing" textLength="192.2388" x="507.772" y="821.3818">ShippingAgentRepresentativeDto</text><polygon fill="#181818" points="88.9653,853.9355,78.9653,857.9355,88.9653,861.9355,84.9653,857.9355" style="stroke:#181818;stroke-width:1.0;"/><line style="stroke:#181818;stroke-width:1.0;stroke-dasharray:2.0,2.0;" x1="82.9653" x2="466.312" y1="857.9355" y2="857.9355"/><text fill="#000000" font-family="sans-serif" font-size="13" font-weight="bold" lengthAdjust="spacing" textLength="14.46" x="94.9653" y="852.6729">23</text><text fill="#000000" font-family="sans-serif" font-size="13" lengthAdjust="spacing" textLength="44.0845" x="113.4253" y="852.6729">200 OK</text><polygon fill="#181818" points="450.312,885.2266,460.312,889.2266,450.312,893.2266,454.312,889.2266" style="stroke:#181818;stroke-width:1.0;"/><line style="stroke:#181818;stroke-width:1.0;" x1="77.9653" x2="456.312" y1="889.2266" y2="889.2266"/><text fill="#000000" font-family="sans-serif" font-size="13" font-weight="bold" lengthAdjust="spacing" textLength="14.46" x="84.9653" y="883.9639">24</text><text fill="#000000" font-family="sans-serif" font-size="13" lengthAdjust="spacing" textLength="346.8867" x="103.4253" y="883.9639">DELETE /api/shipping-agents/{orgId}/representatives/{repId}</text><polygon fill="#181818" points="742.5698,916.5176,752.5698,920.5176,742.5698,924.5176,746.5698,920.5176" style="stroke:#181818;stroke-width:1.0;"/><line style="stroke:#181818;stroke-width:1.0;" x1="472.312" x2="748.5698" y1="920.5176" y2="920.5176"/><text fill="#000000" font-family="sans-serif" font-size="13" font-weight="bold" lengthAdjust="spacing" textLength="14.46" x="479.312" y="915.2549">25</text><text fill="#000000" font-family="sans-serif" font-size="13" lengthAdjust="spacing" textLength="224.0024" x="497.772" y="915.2549">DeactivateRepresentative(orgId, repId)</text><polygon fill="#181818" points="967.0386,947.8086,977.0386,951.8086,967.0386,955.8086,971.0386,951.8086" style="stroke:#181818;stroke-width:1.0;"/><line style="stroke:#181818;stroke-width:1.0;" x1="764.5698" x2="973.0386" y1="951.8086" y2="951.8086"/><text fill="#000000" font-family="sans-serif" font-size="13" font-weight="bold" lengthAdjust="spacing" textLength="14.46" x="771.5698" y="946.5459">26</text><text fill="#000000" font-family="sans-serif" font-size="13" lengthAdjust="spacing" textLength="124.9917" x="790.0298" y="946.5459">FindByIdAsync(repId)</text><polygon fill="#181818" points="775.5698,979.0996,765.5698,983.0996,775.5698,987.0996,771.5698,983.0996" style="stroke:#181818;stroke-width:1.0;"/><line style="stroke:#181818;stroke-width:1.0;stroke-dasharray:2.0,2.0;" x1="769.5698" x2="983.0386" y1="983.0996" y2="983.0996"/><text fill="#000000" font-family="sans-serif" font-size="13" font-weight="bold" lengthAdjust="spacing" textLength="14.46" x="781.5698" y="977.8369">27</text><text fill="#000000" font-family="sans-serif" font-size="13" lengthAdjust="spacing" textLength="172.0088" x="800.0298" y="977.8369">ShippingAgentRepresentative</text><polygon fill="#181818" points="1233.1255,1010.3906,1243.1255,1014.3906,1233.1255,1018.3906,1237.1255,1014.3906" style="stroke:#181818;stroke-width:1.0;"/><line style="stroke:#181818;stroke-width:1.0;" x1="764.5698" x2="1239.1255" y1="1014.3906" y2="1014.3906"/><text fill="#000000" font-family="sans-serif" font-size="13" font-weight="bold" lengthAdjust="spacing" textLength="14.46" x="771.5698" y="1009.1279">28</text><text fill="#000000" font-family="sans-serif" font-size="13" lengthAdjust="spacing" textLength="70.0781" x="790.0298" y="1009.1279">Deactivate()</text><polygon fill="#181818" points="775.5698,1041.6816,765.5698,1045.6816,775.5698,1049.6816,771.5698,1045.6816" style="stroke:#181818;stroke-width:1.0;"/><line style="stroke:#181818;stroke-width:1.0;stroke-dasharray:2.0,2.0;" x1="769.5698" x2="1249.1255" y1="1045.6816" y2="1045.6816"/><text fill="#000000" font-family="sans-serif" font-size="13" font-weight="bold" lengthAdjust="spacing" textLength="14.46" x="781.5698" y="1040.4189">29</text><text fill="#000000" font-family="sans-serif" font-size="13" lengthAdjust="spacing" textLength="49.1309" x="800.0298" y="1040.4189">Success</text><polygon fill="#181818" points="967.0386,1072.9727,977.0386,1076.9727,967.0386,1080.9727,971.0386,1076.9727" style="stroke:#181818;stroke-width:1.0;"/><line style="stroke:#181818;stroke-width:1.0;" x1="764.5698" x2="973.0386" y1="1076.9727" y2="1076.9727"/><text fill="#000000" font-family="sans-serif" font-size="13" font-weight="bold" lengthAdjust="spacing" textLength="14.46" x="771.5698" y="1071.71">30</text><text fill="#000000" font-family="sans-serif" font-size="13" lengthAdjust="spacing" textLength="92.479" x="790.0298" y="1071.71">SaveAsync(rep)</text><polygon fill="#181818" points="775.5698,1104.2637,765.5698,1108.2637,775.5698,1112.2637,771.5698,1108.2637" style="stroke:#181818;stroke-width:1.0;"/><line style="stroke:#181818;stroke-width:1.0;stroke-dasharray:2.0,2.0;" x1="769.5698" x2="983.0386" y1="1108.2637" y2="1108.2637"/><text fill="#000000" font-family="sans-serif" font-size="13" font-weight="bold" lengthAdjust="spacing" textLength="14.46" x="781.5698" y="1103.001">31</text><text fill="#000000" font-family="sans-serif" font-size="13" lengthAdjust="spacing" textLength="172.0088" x="800.0298" y="1103.001">ShippingAgentRepresentative</text><polygon fill="#181818" points="483.312,1135.5547,473.312,1139.5547,483.312,1143.5547,479.312,1139.5547" style="stroke:#181818;stroke-width:1.0;"/><line style="stroke:#181818;stroke-width:1.0;stroke-dasharray:2.0,2.0;" x1="477.312" x2="753.5698" y1="1139.5547" y2="1139.5547"/><text fill="#000000" font-family="sans-serif" font-size="13" font-weight="bold" lengthAdjust="spacing" textLength="14.46" x="489.312" y="1134.292">32</text><text fill="#000000" font-family="sans-serif" font-size="13" lengthAdjust="spacing" textLength="49.1309" x="507.772" y="1134.292">Success</text><polygon fill="#181818" points="83.9653,1166.8457,73.9653,1170.8457,83.9653,1174.8457,79.9653,1170.8457" style="stroke:#181818;stroke-width:1.0;"/><line style="stroke:#181818;stroke-width:1.0;stroke-dasharray:2.0,2.0;" x1="77.9653" x2="466.312" y1="1170.8457" y2="1170.8457"/><text fill="#000000" font-family="sans-serif" font-size="13" font-weight="bold" lengthAdjust="spacing" textLength="14.46" x="89.9653" y="1165.583">33</text><text fill="#000000" font-family="sans-serif" font-size="13" lengthAdjust="spacing" textLength="91.0635" x="108.4253" y="1165.583">204 No Content</text><!--SRC=[xLPDZzem4BtdLumuWSHNgqgLE5IYm5QegmOHsBkR3C7Qn4vjXrLsrV_UYQ59W91b-w5ARNsAx3VFRyRlIT7tN2HCiHXYAQI_LJ96C2f5HnSd2VFlMOYUoI84XRvX8eog0BrbWNpW8eGDYtJr9E82JPOWI6Msqd5OQgH8uy-e7CTmGtmtQHI1XrzI53x2bBCmh-l1sXk-9Rnlf8BMWifXd1A5uYO3TxFXFgeMC0sBiUlGNORxF672G6laRNcIa9XnYCBeYHH6oIWwm2UhvMqJtaEr8swBzUucJT0b9b9pqfTPz7AsS9-1AzJqmGpVuVUIfWfNXKpmHy9BOV7kyeCT2TynWxPp1sZH1_JUsTPW10lNMy609NoW3sGzPYSnU98gd0TV1-f8YROS1QiT41oMfIHgcWGnJnGIuhYFjkNiGc1afoWhoF89GcNbF4INZuhuRhW8tcVpOAmpuU-9EaVmWiVE5awMPUaLwYwExgWmmCkafJgY4_W03U_NvjIqO35smUU6FwAOsutyGXQHIRk0CUDH5vAj57YvhxgsIXLtn1KGSYwIrEXslz_lN2eWSr31E0XEXD9hdzSK2d9BGStAsNg532_rVTJw35cPPXsHLLR_GCSY6vwemJyUs-7UEsSz_hXphXPMqbfLPG0RwAP6dcIBolBuZk3ryDKXO85pSfcDP5tIroyB-k29DcZ_wi2la-1Yu2tLhyYz9Vg3htUM_7tNxNsuVoR4fSIQ-FohBX-2-_5QWqzdjxFLxFTwV5h8QF3vtsRnikdsVrDNJNtIqvbxty0d2Val9TrIx-BAHlw3zWq0]--></g></svg>