<svg xmlns="http://www.w3.org/2000/svg" xmlns:xlink="http://www.w3.org/1999/xlink" contentStyleType="text/css" height="599px" preserveAspectRatio="none" style="width:574px;height:599px;background:#FFFFFF;" version="1.1" viewBox="0 0 574 599" width="574px" zoomAndPan="magnify"><title>Analysis - US06</title><defs/><g><text fill="#000000" font-family="sans-serif" font-size="14" font-weight="bold" lengthAdjust="spacing" textLength="105.0479" x="227.6472" y="25.1074">Analysis - US06</text><!--class User--><g id="elem_User"><rect codeLine="11" fill="#F1F1F1" height="92.4844" id="User" rx="2.5" ry="2.5" style="stroke:#181818;stroke-width:0.5;" width="86.6895" x="59" y="46.6211"/><text fill="#000000" font-family="sans-serif" font-size="14" lengthAdjust="spacing" textLength="29.5586" x="87.5654" y="66.7285">User</text><line style="stroke:#181818;stroke-width:0.5;" x1="60" x2="144.6895" y1="75.2422" y2="75.2422"/><text fill="#000000" font-family="sans-serif" font-size="14" lengthAdjust="spacing" textLength="10.8965" x="65" y="94.3496">id</text><text fill="#000000" font-family="sans-serif" font-size="14" lengthAdjust="spacing" textLength="38.1309" x="65" y="112.9707">profile</text><text fill="#000000" font-family="sans-serif" font-size="14" lengthAdjust="spacing" textLength="74.6895" x="65" y="131.5918">permissions</text></g><!--class ShippingAgentOrganization--><g id="elem_ShippingAgentOrganization"><rect codeLine="17" fill="#F1F1F1" height="148.3477" id="ShippingAgentOrganization" rx="2.5" ry="2.5" style="stroke:#181818;stroke-width:0.5;" width="176.4541" x="14.5" y="217.6211"/><text fill="#000000" font-family="sans-serif" font-size="14" lengthAdjust="spacing" textLength="170.4541" x="17.5" y="237.7285">ShippingAgentOrganization</text><line style="stroke:#181818;stroke-width:0.5;" x1="15.5" x2="189.9541" y1="246.2422" y2="246.2422"/><text fill="#000000" font-family="sans-serif" font-size="14" lengthAdjust="spacing" textLength="10.8965" x="20.5" y="265.3496">id</text><text fill="#000000" font-family="sans-serif" font-size="14" lengthAdjust="spacing" textLength="66.9238" x="20.5" y="283.9707">legalName</text><text fill="#000000" font-family="sans-serif" font-size="14" lengthAdjust="spacing" textLength="108.9375" x="20.5" y="302.5918">alternativeNames</text><text fill="#000000" font-family="sans-serif" font-size="14" lengthAdjust="spacing" textLength="49.8066" x="20.5" y="321.2129">address</text><text fill="#000000" font-family="sans-serif" font-size="14" lengthAdjust="spacing" textLength="68.4688" x="20.5" y="339.834">taxNumber</text><text fill="#000000" font-family="sans-serif" font-size="14" lengthAdjust="spacing" textLength="95.7168" x="20.5" y="358.4551">representatives</text></g><!--class ShippingAgentRepresentative--><g id="elem_ShippingAgentRepresentative"><rect codeLine="26" fill="#F1F1F1" height="148.3477" id="ShippingAgentRepresentative" rx="2.5" ry="2.5" style="stroke:#181818;stroke-width:0.5;" width="191.2402" x="7" y="444.6211"/><text fill="#000000" font-family="sans-serif" font-size="14" lengthAdjust="spacing" textLength="185.2402" x="10" y="464.7285">ShippingAgentRepresentative</text><line style="stroke:#181818;stroke-width:0.5;" x1="8" x2="197.2402" y1="473.2422" y2="473.2422"/><text fill="#000000" font-family="sans-serif" font-size="14" lengthAdjust="spacing" textLength="10.8965" x="13" y="492.3496">id</text><text fill="#000000" font-family="sans-serif" font-size="14" lengthAdjust="spacing" textLength="35.0205" x="13" y="510.9707">name</text><text fill="#000000" font-family="sans-serif" font-size="14" lengthAdjust="spacing" textLength="51.3584" x="13" y="529.5918">citizenId</text><text fill="#000000" font-family="sans-serif" font-size="14" lengthAdjust="spacing" textLength="63.041" x="13" y="548.2129">nationality</text><text fill="#000000" font-family="sans-serif" font-size="14" lengthAdjust="spacing" textLength="33.4551" x="13" y="566.834">email</text><text fill="#000000" font-family="sans-serif" font-size="14" lengthAdjust="spacing" textLength="38.9307" x="13" y="585.4551">phone</text></g><g id="elem_GMN5"><path d="M181.5,70.1211 L181.5,88.6211 L146.13,92.6211 L181.5,96.6211 L181.5,114.7031 A0,0 0 0 0 181.5,114.7031 L525.9575,114.7031 A0,0 0 0 0 525.9575,114.7031 L525.9575,80.1211 L515.9575,70.1211 L181.5,70.1211 A0,0 0 0 0 181.5,70.1211 " fill="#FAFAFA" style="stroke:#181818;stroke-width:0.5;"/><path d="M515.9575,70.1211 L515.9575,80.1211 L525.9575,80.1211 L515.9575,70.1211 " fill="#FAFAFA" style="stroke:#181818;stroke-width:0.5;"/><text fill="#000000" font-family="sans-serif" font-size="13" lengthAdjust="spacing" textLength="323.4575" x="187.5" y="89.1494">Only users with profile "PORT_AUTHORITY_OFFICER"</text><text fill="#000000" font-family="sans-serif" font-size="13" lengthAdjust="spacing" textLength="291.9541" x="187.5" y="106.4404">can register ShippingAgentOrganization instances.</text></g><g id="elem_GMN8"><path d="M225.5,278.1211 L225.5,287.6211 L190.64,291.6211 L225.5,295.6211 L225.5,305.4121 A0,0 0 0 0 225.5,305.4121 L567.3423,305.4121 A0,0 0 0 0 567.3423,305.4121 L567.3423,288.1211 L557.3423,278.1211 L225.5,278.1211 A0,0 0 0 0 225.5,278.1211 " fill="#FAFAFA" style="stroke:#181818;stroke-width:0.5;"/><path d="M557.3423,278.1211 L557.3423,288.1211 L567.3423,288.1211 L557.3423,278.1211 " fill="#FAFAFA" style="stroke:#181818;stroke-width:0.5;"/><text fill="#000000" font-family="sans-serif" font-size="13" lengthAdjust="spacing" textLength="320.8423" x="231.5" y="297.1494">Organization is created with at least one representative.</text></g><!--link User to ShippingAgentOrganization--><g id="link_User_ShippingAgentOrganization"><path codeLine="44" d="M102.5,138.8211 C102.5,162.1011 102.5,185.0811 102.5,211.4511 " fill="none" id="User-to-ShippingAgentOrganization" style="stroke:#181818;stroke-width:1.0;"/><polygon fill="#181818" points="102.5,217.4511,106.5,208.4511,102.5,212.4511,98.5,208.4511,102.5,217.4511" style="stroke:#181818;stroke-width:1.0;"/><text fill="#000000" font-family="sans-serif" font-size="13" lengthAdjust="spacing" textLength="49.8481" x="103.5" y="183.6494">registers</text><text fill="#000000" font-family="sans-serif" font-size="13" lengthAdjust="spacing" textLength="7.23" x="95.0054" y="161.2105">1</text><text fill="#000000" font-family="sans-serif" font-size="13" lengthAdjust="spacing" textLength="5.0591" x="97.2345" y="206.3388">*</text></g><!--reverse link ShippingAgentOrganization to ShippingAgentRepresentative--><g id="link_ShippingAgentOrganization_ShippingAgentRepresentative"><path codeLine="45" d="M102.5,377.6711 C102.5,402.9511 102.5,419.2711 102.5,444.5511 " fill="none" id="ShippingAgentOrganization-backto-ShippingAgentRepresentative" style="stroke:#181818;stroke-width:1.0;"/><polygon fill="#181818" points="102.5,365.6711,98.5,371.6711,102.5,377.6711,106.5,371.6711,102.5,365.6711" style="stroke:#181818;stroke-width:1.0;"/><text fill="#000000" font-family="sans-serif" font-size="13" lengthAdjust="spacing" textLength="47.6963" x="103.5" y="410.6494">includes</text><text fill="#000000" font-family="sans-serif" font-size="13" lengthAdjust="spacing" textLength="7.23" x="95.1275" y="388.2095">1</text><text fill="#000000" font-family="sans-serif" font-size="13" lengthAdjust="spacing" textLength="19.5127" x="82.5783" y="433.4486">1..*</text></g><!--SRC=[VL9DRzim3BthLn0-5d3GNNReOK0mh6WkTP6Fmqu5ApCsKLaoHBfTEko_ZxQH8WcGwYAA7- -HZv9NZZrcxA1BCVasfuv0yq1EFYCz-bTiQAE7G939AyOcd2P8YtLwvzZ07eESHdn0aQLgvfT1QULJtF07mQrpocfeouZX82nGmcvp-zsvbci2pzaRmMHtf6sgnRa92dP26VuwiCFrTFKvxTco9vjonoASehX_nv9DotrlpIqRYbhb1YD_e5hEEKwW1iCZTZCI1gKSBUsDHf_CphhE9BEj-ETnw5ueJwzClKKCVwguHhu-opgdZqTcpseInTNHFNQAWVKmlQb33lEiROeq4iMajXPkMeMqdmIoU1N30GQp1TvPswDAK3nLw-tpShTzgDQhxU_dwlv-zVFNkh0IZz7cQ5XiyYz4uoZs0Jp9mb6iOMI_xE5gyTZO6PQ0puHAzTmbggq1nK0YNMXwoZPzWk9R0MNv0ugRuejkxpv74dSzQyIwAKkx5ujBk8kbtPa0FWorBVa_]--></g></svg>