<svg xmlns="http://www.w3.org/2000/svg" xmlns:xlink="http://www.w3.org/1999/xlink" contentStyleType="text/css" height="646px" preserveAspectRatio="none" style="width:1597px;height:646px;background:#FFFFFF;" version="1.1" viewBox="0 0 1597 646" width="1597px" zoomAndPan="magnify"><title>Full Sequence Diagram - US06</title><defs/><g><text fill="#000000" font-family="sans-serif" font-size="14" font-weight="bold" lengthAdjust="spacing" textLength="202.2822" x="696.5122" y="30.1074">Full Sequence Diagram - US06</text><rect fill="#FFFFFF" height="411.7832" style="stroke:#181818;stroke-width:1.0;" width="10" x="67.9653" y="133.2422"/><rect fill="#FFFFFF" height="357.2012" style="stroke:#181818;stroke-width:1.0;" width="10" x="263.5605" y="156.5332"/><rect fill="#FFFFFF" height="366.2012" style="stroke:#181818;stroke-width:1.0;" width="10" x="494.5293" y="187.8242"/><rect fill="#FFFFFF" height="31.291" style="stroke:#181818;stroke-width:1.0;" width="10" x="828.8589" y="219.1152"/><rect fill="#FFFFFF" height="31.291" style="stroke:#181818;stroke-width:1.0;" width="10" x="828.8589" y="451.1523"/><rect fill="#FFFFFF" height="138.1641" style="stroke:#181818;stroke-width:1.0;" width="10" x="1137.3994" y="281.6973"/><rect fill="#FFFFFF" height="31.291" style="stroke:#181818;stroke-width:1.0;" width="10" x="1484.7417" y="357.2793"/><line style="stroke:#181818;stroke-width:0.5;stroke-dasharray:5.0,5.0;" x1="72" x2="72" y1="123.2422" y2="563.0254"/><line style="stroke:#181818;stroke-width:0.5;stroke-dasharray:5.0,5.0;" x1="268.2334" x2="268.2334" y1="123.2422" y2="563.0254"/><line style="stroke:#181818;stroke-width:0.5;stroke-dasharray:5.0,5.0;" x1="498.7056" x2="498.7056" y1="123.2422" y2="563.0254"/><line style="stroke:#181818;stroke-width:0.5;stroke-dasharray:5.0,5.0;" x1="832.918" x2="832.918" y1="123.2422" y2="563.0254"/><line style="stroke:#181818;stroke-width:0.5;stroke-dasharray:5.0,5.0;" x1="1142.2275" x2="1142.2275" y1="123.2422" y2="563.0254"/><line style="stroke:#181818;stroke-width:0.5;stroke-dasharray:5.0,5.0;" x1="1489.1768" x2="1489.1768" y1="123.2422" y2="563.0254"/><text fill="#000000" font-family="sans-serif" font-size="14" lengthAdjust="spacing" textLength="129.9307" x="5" y="119.7285">Port Authority Officer</text><ellipse cx="72.9653" cy="53.1211" fill="#E3E3E3" rx="8" ry="8" style="stroke:#181818;stroke-width:0.5;"/><path d="M72.9653,61.1211 L72.9653,88.1211 M59.9653,69.1211 L85.9653,69.1211 M72.9653,88.1211 L59.9653,103.1211 M72.9653,88.1211 L85.9653,103.1211 " fill="none" style="stroke:#181818;stroke-width:0.5;"/><text fill="#000000" font-family="sans-serif" font-size="14" lengthAdjust="spacing" textLength="129.9307" x="5" y="577.1328">Port Authority Officer</text><ellipse cx="72.9653" cy="589.1465" fill="#E3E3E3" rx="8" ry="8" style="stroke:#181818;stroke-width:0.5;"/><path d="M72.9653,597.1465 L72.9653,624.1465 M59.9653,605.1465 L85.9653,605.1465 M72.9653,624.1465 L59.9653,639.1465 M72.9653,624.1465 L85.9653,639.1465 " fill="none" style="stroke:#181818;stroke-width:0.5;"/><rect fill="#E3E3E3" height="32.6211" rx="2.5" ry="2.5" style="stroke:#181818;stroke-width:0.5;" width="176.6543" x="180.2334" y="89.6211"/><text fill="#000000" font-family="sans-serif" font-size="14" lengthAdjust="spacing" textLength="162.6543" x="187.2334" y="111.7285">:ShippingAgentsController</text><rect fill="#E3E3E3" height="32.6211" rx="2.5" ry="2.5" style="stroke:#181818;stroke-width:0.5;" width="176.6543" x="180.2334" y="562.0254"/><text fill="#000000" font-family="sans-serif" font-size="14" lengthAdjust="spacing" textLength="162.6543" x="187.2334" y="584.1328">:ShippingAgentsController</text><rect fill="#E3E3E3" height="32.6211" rx="2.5" ry="2.5" style="stroke:#181818;stroke-width:0.5;" width="155.6475" x="421.7056" y="89.6211"/><text fill="#000000" font-family="sans-serif" font-size="14" lengthAdjust="spacing" textLength="141.6475" x="428.7056" y="111.7285">:ShippingAgentService</text><rect fill="#E3E3E3" height="32.6211" rx="2.5" ry="2.5" style="stroke:#181818;stroke-width:0.5;" width="155.6475" x="421.7056" y="562.0254"/><text fill="#000000" font-family="sans-serif" font-size="14" lengthAdjust="spacing" textLength="141.6475" x="428.7056" y="584.1328">:ShippingAgentService</text><rect fill="#E3E3E3" height="32.6211" rx="2.5" ry="2.5" style="stroke:#181818;stroke-width:0.5;" width="175.8818" x="745.918" y="89.6211"/><text fill="#000000" font-family="sans-serif" font-size="14" lengthAdjust="spacing" textLength="161.8818" x="752.918" y="111.7285">:ShippingAgentRepository</text><rect fill="#E3E3E3" height="32.6211" rx="2.5" ry="2.5" style="stroke:#181818;stroke-width:0.5;" width="175.8818" x="745.918" y="562.0254"/><text fill="#000000" font-family="sans-serif" font-size="14" lengthAdjust="spacing" textLength="161.8818" x="752.918" y="584.1328">:ShippingAgentRepository</text><rect fill="#E3E3E3" height="32.6211" rx="2.5" ry="2.5" style="stroke:#181818;stroke-width:0.5;" width="188.3438" x="1048.2275" y="89.6211"/><text fill="#000000" font-family="sans-serif" font-size="14" lengthAdjust="spacing" textLength="174.3438" x="1055.2275" y="111.7285">:ShippingAgentOrganization</text><rect fill="#E3E3E3" height="32.6211" rx="2.5" ry="2.5" style="stroke:#181818;stroke-width:0.5;" width="188.3438" x="1048.2275" y="562.0254"/><text fill="#000000" font-family="sans-serif" font-size="14" lengthAdjust="spacing" textLength="174.3438" x="1055.2275" y="584.1328">:ShippingAgentOrganization</text><rect fill="#E3E3E3" height="32.6211" rx="2.5" ry="2.5" style="stroke:#181818;stroke-width:0.5;" width="203.1299" x="1388.1768" y="89.6211"/><text fill="#000000" font-family="sans-serif" font-size="14" lengthAdjust="spacing" textLength="189.1299" x="1395.1768" y="111.7285">:ShippingAgentRepresentative</text><rect fill="#E3E3E3" height="32.6211" rx="2.5" ry="2.5" style="stroke:#181818;stroke-width:0.5;" width="203.1299" x="1388.1768" y="562.0254"/><text fill="#000000" font-family="sans-serif" font-size="14" lengthAdjust="spacing" textLength="189.1299" x="1395.1768" y="584.1328">:ShippingAgentRepresentative</text><rect fill="#FFFFFF" height="411.7832" style="stroke:#181818;stroke-width:1.0;" width="10" x="67.9653" y="133.2422"/><rect fill="#FFFFFF" height="357.2012" style="stroke:#181818;stroke-width:1.0;" width="10" x="263.5605" y="156.5332"/><rect fill="#FFFFFF" height="366.2012" style="stroke:#181818;stroke-width:1.0;" width="10" x="494.5293" y="187.8242"/><rect fill="#FFFFFF" height="31.291" style="stroke:#181818;stroke-width:1.0;" width="10" x="828.8589" y="219.1152"/><rect fill="#FFFFFF" height="31.291" style="stroke:#181818;stroke-width:1.0;" width="10" x="828.8589" y="451.1523"/><rect fill="#FFFFFF" height="138.1641" style="stroke:#181818;stroke-width:1.0;" width="10" x="1137.3994" y="281.6973"/><rect fill="#FFFFFF" height="31.291" style="stroke:#181818;stroke-width:1.0;" width="10" x="1484.7417" y="357.2793"/><polygon fill="#181818" points="251.5605,152.5332,261.5605,156.5332,251.5605,160.5332,255.5605,156.5332" style="stroke:#181818;stroke-width:1.0;"/><line style="stroke:#181818;stroke-width:1.0;" x1="77.9653" x2="257.5605" y1="156.5332" y2="156.5332"/><text fill="#000000" font-family="sans-serif" font-size="13" font-weight="bold" lengthAdjust="spacing" textLength="7.23" x="84.9653" y="151.2705">1</text><text fill="#000000" font-family="sans-serif" font-size="13" lengthAdjust="spacing" textLength="155.3652" x="96.1953" y="151.2705">POST /api/shipping-agents</text><polygon fill="#181818" points="482.5293,183.8242,492.5293,187.8242,482.5293,191.8242,486.5293,187.8242" style="stroke:#181818;stroke-width:1.0;"/><line style="stroke:#181818;stroke-width:1.0;" x1="273.5605" x2="488.5293" y1="187.8242" y2="187.8242"/><text fill="#000000" font-family="sans-serif" font-size="13" font-weight="bold" lengthAdjust="spacing" textLength="7.23" x="280.5605" y="182.5615">2</text><text fill="#000000" font-family="sans-serif" font-size="13" lengthAdjust="spacing" textLength="184.2471" x="291.7905" y="182.5615">RegisterOrganizationAsync(dto)</text><polygon fill="#181818" points="816.8589,215.1152,826.8589,219.1152,816.8589,223.1152,820.8589,219.1152" style="stroke:#181818;stroke-width:1.0;"/><line style="stroke:#181818;stroke-width:1.0;" x1="504.5293" x2="822.8589" y1="219.1152" y2="219.1152"/><text fill="#000000" font-family="sans-serif" font-size="13" font-weight="bold" lengthAdjust="spacing" textLength="7.23" x="511.5293" y="213.8525">3</text><text fill="#000000" font-family="sans-serif" font-size="13" lengthAdjust="spacing" textLength="294.0996" x="522.7593" y="213.8525">findById(identifier) // Optional check for uniqueness</text><polygon fill="#181818" points="515.5293,246.4063,505.5293,250.4063,515.5293,254.4063,511.5293,250.4063" style="stroke:#181818;stroke-width:1.0;"/><line style="stroke:#181818;stroke-width:1.0;stroke-dasharray:2.0,2.0;" x1="509.5293" x2="832.8589" y1="250.4063" y2="250.4063"/><text fill="#000000" font-family="sans-serif" font-size="13" font-weight="bold" lengthAdjust="spacing" textLength="7.23" x="521.5293" y="245.1436">4</text><text fill="#000000" font-family="sans-serif" font-size="13" lengthAdjust="spacing" textLength="81.6563" x="532.7593" y="245.1436">null (if unique)</text><polygon fill="#181818" points="1125.3994,277.6973,1135.3994,281.6973,1125.3994,285.6973,1129.3994,281.6973" style="stroke:#181818;stroke-width:1.0;"/><line style="stroke:#181818;stroke-width:1.0;" x1="504.5293" x2="1131.3994" y1="281.6973" y2="281.6973"/><text fill="#000000" font-family="sans-serif" font-size="13" font-weight="bold" lengthAdjust="spacing" textLength="7.23" x="511.5293" y="276.4346">5</text><text fill="#000000" font-family="sans-serif" font-size="13" lengthAdjust="spacing" textLength="602.6401" x="522.7593" y="276.4346">new ShippingAgentOrganization(id, legalName, alternativeNames, address, taxNumber, representatives)</text><line style="stroke:#181818;stroke-width:1.0;" x1="1147.3994" x2="1189.3994" y1="312.9883" y2="312.9883"/><line style="stroke:#181818;stroke-width:1.0;" x1="1189.3994" x2="1189.3994" y1="312.9883" y2="325.9883"/><line style="stroke:#181818;stroke-width:1.0;" x1="1148.3994" x2="1189.3994" y1="325.9883" y2="325.9883"/><polygon fill="#181818" points="1158.3994,321.9883,1148.3994,325.9883,1158.3994,329.9883,1154.3994,325.9883" style="stroke:#181818;stroke-width:1.0;"/><text fill="#000000" font-family="sans-serif" font-size="13" font-weight="bold" lengthAdjust="spacing" textLength="7.23" x="1154.3994" y="307.7256">6</text><text fill="#000000" font-family="sans-serif" font-size="13" lengthAdjust="spacing" textLength="99.7153" x="1165.6294" y="307.7256">validateInputs(...)</text><polygon fill="#181818" points="1472.7417,353.2793,1482.7417,357.2793,1472.7417,361.2793,1476.7417,357.2793" style="stroke:#181818;stroke-width:1.0;"/><line style="stroke:#181818;stroke-width:1.0;" x1="1147.3994" x2="1478.7417" y1="357.2793" y2="357.2793"/><text fill="#000000" font-family="sans-serif" font-size="13" font-weight="bold" lengthAdjust="spacing" textLength="7.23" x="1154.3994" y="352.0166">7</text><text fill="#000000" font-family="sans-serif" font-size="13" lengthAdjust="spacing" textLength="307.1123" x="1165.6294" y="352.0166">new ShippingAgentRepresentative(...) // For each rep</text><polygon fill="#181818" points="1158.3994,384.5703,1148.3994,388.5703,1158.3994,392.5703,1154.3994,388.5703" style="stroke:#181818;stroke-width:1.0;"/><line style="stroke:#181818;stroke-width:1.0;stroke-dasharray:2.0,2.0;" x1="1152.3994" x2="1488.7417" y1="388.5703" y2="388.5703"/><text fill="#000000" font-family="sans-serif" font-size="13" font-weight="bold" lengthAdjust="spacing" textLength="7.23" x="1164.3994" y="383.3076">8</text><text fill="#000000" font-family="sans-serif" font-size="13" lengthAdjust="spacing" textLength="172.0088" x="1175.6294" y="383.3076">ShippingAgentRepresentative</text><polygon fill="#181818" points="515.5293,415.8613,505.5293,419.8613,515.5293,423.8613,511.5293,419.8613" style="stroke:#181818;stroke-width:1.0;"/><line style="stroke:#181818;stroke-width:1.0;stroke-dasharray:2.0,2.0;" x1="509.5293" x2="1141.3994" y1="419.8613" y2="419.8613"/><text fill="#000000" font-family="sans-serif" font-size="13" font-weight="bold" lengthAdjust="spacing" textLength="7.23" x="521.5293" y="414.5986">9</text><text fill="#000000" font-family="sans-serif" font-size="13" lengthAdjust="spacing" textLength="158.2788" x="532.7593" y="414.5986">ShippingAgentOrganization</text><polygon fill="#181818" points="816.8589,447.1523,826.8589,451.1523,816.8589,455.1523,820.8589,451.1523" style="stroke:#181818;stroke-width:1.0;"/><line style="stroke:#181818;stroke-width:1.0;" x1="504.5293" x2="822.8589" y1="451.1523" y2="451.1523"/><text fill="#000000" font-family="sans-serif" font-size="13" font-weight="bold" lengthAdjust="spacing" textLength="14.46" x="511.5293" y="445.8896">10</text><text fill="#000000" font-family="sans-serif" font-size="13" lengthAdjust="spacing" textLength="138.0171" x="529.9893" y="445.8896">AddAsync(organization)</text><polygon fill="#181818" points="515.5293,478.4434,505.5293,482.4434,515.5293,486.4434,511.5293,482.4434" style="stroke:#181818;stroke-width:1.0;"/><line style="stroke:#181818;stroke-width:1.0;stroke-dasharray:2.0,2.0;" x1="509.5293" x2="832.8589" y1="482.4434" y2="482.4434"/><text fill="#000000" font-family="sans-serif" font-size="13" font-weight="bold" lengthAdjust="spacing" textLength="14.46" x="521.5293" y="477.1807">11</text><text fill="#000000" font-family="sans-serif" font-size="13" lengthAdjust="spacing" textLength="158.2788" x="539.9893" y="477.1807">ShippingAgentOrganization</text><polygon fill="#181818" points="279.5605,509.7344,269.5605,513.7344,279.5605,517.7344,275.5605,513.7344" style="stroke:#181818;stroke-width:1.0;"/><line style="stroke:#181818;stroke-width:1.0;stroke-dasharray:2.0,2.0;" x1="273.5605" x2="493.5293" y1="513.7344" y2="513.7344"/><text fill="#000000" font-family="sans-serif" font-size="13" font-weight="bold" lengthAdjust="spacing" textLength="14.46" x="285.5605" y="508.4717">12</text><text fill="#000000" font-family="sans-serif" font-size="13" lengthAdjust="spacing" textLength="178.5088" x="304.0205" y="508.4717">ShippingAgentOrganizationDto</text><polygon fill="#181818" points="83.9653,541.0254,73.9653,545.0254,83.9653,549.0254,79.9653,545.0254" style="stroke:#181818;stroke-width:1.0;"/><line style="stroke:#181818;stroke-width:1.0;stroke-dasharray:2.0,2.0;" x1="77.9653" x2="267.5605" y1="545.0254" y2="545.0254"/><text fill="#000000" font-family="sans-serif" font-size="13" font-weight="bold" lengthAdjust="spacing" textLength="14.46" x="89.9653" y="539.7627">13</text><text fill="#000000" font-family="sans-serif" font-size="13" lengthAdjust="spacing" textLength="89.5908" x="108.4253" y="539.7627">Created with ID</text><!--SRC=[hPHDZvim48Rl_8fHJa7AHqyzxA4IJRfIf6g9ODkxYmUmujZKDadJNz-nIIch12AjwXE2cMVUcNUmFGZLCCEESDHA5xNHHmHdMeni_wLXnO5LcBkBH31OEAOgEGomDUFwB5G59PCMeuYrJgls-0DD53dXAEsvbH9o_DcYAX2sWbK-SGdVyWyVARvmsi1ihus3f7MrDi9T82rBKQ2P0REmJzA8YZbHY8Of1xEdl1PDGpMJ2fMp6wsSqL9UmpUlsTUf-1pDYTWXDl- -cGhDiD5MaBvBYCw-x2ULfAPYIlncJcZLuQUL4zwWfGVAE5q59LaOYJWnXw7p2CAXHrX-2it14-pJ_1NMh15hUmKkMPZ5DRedX670u0G0WQXpucHO2UlG39KdzgAAENSwVfFO8_tCuEPu7c7zY8XR2iK_NtPyBZYf4gL04yDw3MdZAp09HOt50KfolbN2RmPQUuVQ5msZXv4JYYxxffJVjxaeh-ZuJXx7H-HhF-IW9-8PHfsc7XSWiMBoXHrn0KpIG5MmrB-mz8PpyfaU7Flr4dwD1VrBG-zjFDMyNwEntlDkBpgT9oO5fuoTQbfdvwlLAdwScDrhyErg1fBtxvaCez7LNlueUQ0x6mtwAoBhZ0lo9nICSWPEJfKBtVORCkfbzA10-d3p4ywx7qWFiF7_Mkrt2hyf4JJ_kqv6iLkdenlQu4xfRXC2xOE16uCKmE4iN0sxRHGDilnTzWS0]--></g></svg>